#N canvas 46 313 272 241 10;
#X obj 68 59 wrap~;
#X obj 50 80 -~;
#X obj 76 15 inlet~;
#X obj 91 147 outlet~;
#X obj 127 63 ==~ 0;
#X obj 173 64 <~ 0;
#X obj 143 89 +~;
#X obj 92 114 +~;
#X connect 0 0 1 1;
#X connect 1 0 7 0;
#X connect 2 0 0 0;
#X connect 2 0 1 0;
#X connect 2 0 4 0;
#X connect 2 0 5 0;
#X connect 4 0 6 0;
#X connect 5 0 6 1;
#X connect 6 0 7 1;
#X connect 7 0 3 0;
