#N canvas 119 273 450 300 10;
#X obj 68 49 inlet~;
#X obj 203 48 inlet~;
#X text 93 32 freq;
#X text 250 42 I;
#X obj 89 110 osc~;
#X obj 111 142 *~;
#X obj 143 110 *~;
#X obj 110 199 outlet~;
#X connect 0 0 4 0;
#X connect 0 0 6 0;
#X connect 1 0 6 1;
#X connect 4 0 5 0;
#X connect 5 0 7 0;
#X connect 6 0 5 1;
