#N canvas 124 152 755 536 10;
#X obj 283 435 vline~;
#X obj 277 157 snapshot~;
#X obj 347 156 snapshot~;
#X obj 417 156 snapshot~;
#X obj 484 157 snapshot~;
#X obj 233 326 pack 1 0;
#X obj 275 278 t b f;
#X obj 323 328 del 10;
#X obj 349 384 pack 0 0;
#X obj 349 355 f;
#X obj 475 379 pack 0 0;
#X obj 484 347 t b f;
#X obj 188 116 t b b b;
#X msg 324 296 stop;
#X obj 283 63 inlet~;
#X obj 346 65 inlet~;
#X obj 412 68 inlet~;
#X obj 487 69 inlet~;
#X text 349 30 A D S R - all 0..1;
#X obj 122 62 inlet~;
#X text 127 34 trigger;
#X obj 277 181 + 1e-05;
#X obj 277 209 pow 2;
#X obj 352 181 + 1e-05;
#X obj 352 209 pow 2;
#X obj 492 181 + 1e-05;
#X obj 492 209 pow 2;
#X obj 272 486 outlet~;
#X obj 122 86 threshold~ 0.5 10 0.5 10;
#X obj 277 235 scal 0 1 0 1000;
#X obj 345 260 scal 0 1 0 1000;
#X obj 484 235 scal 0 1 0 3000;
#X connect 0 0 27 0;
#X connect 1 0 21 0;
#X connect 2 0 23 0;
#X connect 3 0 9 1;
#X connect 4 0 25 0;
#X connect 5 0 0 0;
#X connect 6 0 5 0;
#X connect 6 0 7 0;
#X connect 6 1 5 1;
#X connect 6 1 7 1;
#X connect 7 0 9 0;
#X connect 8 0 0 0;
#X connect 9 0 8 0;
#X connect 10 0 0 0;
#X connect 11 0 10 0;
#X connect 11 1 10 1;
#X connect 12 0 1 0;
#X connect 12 1 2 0;
#X connect 12 2 3 0;
#X connect 13 0 7 0;
#X connect 14 0 1 0;
#X connect 15 0 2 0;
#X connect 16 0 3 0;
#X connect 17 0 4 0;
#X connect 19 0 28 0;
#X connect 21 0 22 0;
#X connect 22 0 29 0;
#X connect 23 0 24 0;
#X connect 24 0 30 0;
#X connect 25 0 26 0;
#X connect 26 0 31 0;
#X connect 28 0 12 0;
#X connect 28 1 4 0;
#X connect 28 1 13 0;
#X connect 29 0 6 0;
#X connect 30 0 8 1;
#X connect 31 0 11 0;
