#N canvas 811 289 406 480 10;
#X obj 140 137 snapshot~;
#X obj 254 135 snapshot~;
#X obj 138 255 t b f;
#X obj 178 295 del 10;
#X obj 141 55 inlet~;
#X obj 254 62 inlet~;
#X obj 52 56 inlet~;
#X text 51 32 trigger;
#X obj 140 161 + 1e-05;
#X obj 259 160 + 1e-05;
#X obj 111 407 outlet~;
#X obj 140 219 scal 0 1 0 1000;
#X obj 258 219 scal 0 1 0 2000;
#X obj 53 80 trig.detect;
#X obj 140 197 pow 3;
#X obj 259 188 pow 3;
#X obj 177 106 t b b;
#X text 39 180 cube for space in low vals;
#X obj 112 371 curve~;
#X obj 178 320 pack 0 0 -0.5;
#X obj 82 322 pack 1 0 -0.5;
#X connect 0 0 8 0;
#X connect 1 0 9 0;
#X connect 2 0 3 0;
#X connect 2 0 20 0;
#X connect 2 1 3 1;
#X connect 2 1 20 1;
#X connect 3 0 19 0;
#X connect 4 0 0 0;
#X connect 5 0 1 0;
#X connect 6 0 13 0;
#X connect 8 0 14 0;
#X connect 9 0 15 0;
#X connect 11 0 2 0;
#X connect 12 0 19 1;
#X connect 13 0 16 0;
#X connect 14 0 11 0;
#X connect 15 0 12 0;
#X connect 16 0 0 0;
#X connect 16 1 1 0;
#X connect 18 0 10 0;
#X connect 19 0 18 0;
#X connect 20 0 18 0;
