#N canvas 0 22 450 300 10;
#X obj 149 166 phasor~;
#X obj 149 195 <~ 0.1;
#X obj 147 53 inlet~;
#X obj 148 102 scale~ 0 1 40 300;
#X obj 148 140 /~ 15;
#X obj 146 233 outlet~;
#X obj 148 81 *~;
#X connect 0 0 1 0;
#X connect 1 0 5 0;
#X connect 2 0 6 0;
#X connect 2 0 6 1;
#X connect 3 0 4 0;
#X connect 4 0 0 0;
#X connect 6 0 3 0;
