#N canvas 0 22 779 572 10;
#X obj 135 74 inlet~;
#X obj 27 204 f;
#X obj 57 204 + 1;
#X obj 27 240 % 2;
#X obj 27 262 sel 0;
#X obj 27 344 outlet~;
#X obj 116 204 f;
#X obj 146 204 + 1;
#X obj 116 259 sel 0;
#X obj 116 341 outlet~;
#X obj 116 237 % 4;
#X obj 268 87 loadbang;
#X msg 291 115 0;
#X obj 207 204 f;
#X obj 237 204 + 1;
#X obj 207 253 sel 0;
#X obj 207 335 outlet~;
#X obj 207 231 % 8;
#X obj 291 204 f;
#X obj 321 204 + 1;
#X obj 291 249 sel 0;
#X obj 291 331 outlet~;
#X obj 291 227 % 16;
#X obj 135 116 t b b b b b;
#X obj 291 299 trig~;
#X obj 26 297 trig~;
#X obj 114 304 trig~;
#X obj 206 304 trig~;
#X obj 135 94 trig.detect;
#X obj 348 72 inlet~;
#X obj 348 92 trig.detect;
#X obj 361 204 f;
#X obj 391 204 + 1;
#X obj 361 249 sel 0;
#X obj 361 331 outlet~;
#X obj 361 299 trig~;
#X obj 361 227 % 32;
#X connect 0 0 28 0;
#X connect 1 0 2 0;
#X connect 1 0 3 0;
#X connect 2 0 1 1;
#X connect 3 0 4 0;
#X connect 4 0 25 0;
#X connect 6 0 7 0;
#X connect 6 0 10 0;
#X connect 7 0 6 1;
#X connect 8 0 26 0;
#X connect 10 0 8 0;
#X connect 11 0 12 0;
#X connect 12 0 31 1;
#X connect 12 0 18 1;
#X connect 12 0 13 1;
#X connect 12 0 6 1;
#X connect 12 0 1 1;
#X connect 13 0 14 0;
#X connect 13 0 17 0;
#X connect 14 0 13 1;
#X connect 15 0 27 0;
#X connect 17 0 15 0;
#X connect 18 0 19 0;
#X connect 18 0 22 0;
#X connect 19 0 18 1;
#X connect 20 0 24 0;
#X connect 22 0 20 0;
#X connect 23 0 1 0;
#X connect 23 1 6 0;
#X connect 23 2 13 0;
#X connect 23 3 18 0;
#X connect 23 4 31 0;
#X connect 24 0 21 0;
#X connect 25 0 5 0;
#X connect 26 0 9 0;
#X connect 27 0 16 0;
#X connect 28 0 23 0;
#X connect 29 0 30 0;
#X connect 30 0 12 0;
#X connect 31 0 32 0;
#X connect 31 0 36 0;
#X connect 32 0 31 1;
#X connect 33 0 35 0;
#X connect 35 0 34 0;
#X connect 36 0 33 0;
#X coords 0 572 1 571 150 75 0;
