#N canvas 141 175 450 300 10;
#X obj 172 18 inlet~;
#X obj 172 43 -~ 1;
#X obj 171 68 /~ 0.3;
#X obj 171 94 exp~;
#X obj 170 119 -~ 0.035674;
#X obj 171 147 /~ 0.964326;
#X obj 171 175 outlet~;
#X connect 0 0 1 0;
#X connect 1 0 2 0;
#X connect 2 0 3 0;
#X connect 3 0 4 0;
#X connect 4 0 5 0;
#X connect 5 0 6 0;
