#N canvas 0 23 802 453 10;
#X obj 335 18 inlet~;
#X obj 335 85 timer;
#X obj 89 383 outlet~;
#X obj 335 40 trig.detect;
#X text 391 18 clock;
#X obj 92 171 inlet~;
#X text 143 169 signal in;
#N canvas 125 359 259 180 delay-writer 0;
#X obj 26 37 inlet~;
#X obj 26 110 outlet~;
#X obj 46 74 delwrite~ delay-\$0 10000;
#X connect 0 0 1 0;
#X connect 0 0 2 0;
#X restore 92 267 pd delay-writer;
#N canvas 0 23 280 330 delay-reader 0;
#X obj 96 107 inlet~;
#X obj 89 267 outlet~;
#X obj 112 163 inlet~;
#X obj 112 198 delread4~ delay-\$0;
#X connect 2 0 3 0;
#X connect 3 0 1 0;
#X restore 92 291 pd delay-reader;
#X obj 335 222 line~;
#X obj 335 62 t b b;
#X obj 498 90 clip~ 0 1;
#X obj 498 36 inlet~;
#X obj 400 382 outlet~;
#N canvas 125 359 259 180 delay-writer 0;
#X obj 26 37 inlet~;
#X obj 26 110 outlet~;
#X obj 46 74 delwrite~ delay2-\$0 10000;
#X connect 0 0 1 0;
#X connect 0 0 2 0;
#X restore 399 268 pd delay-writer;
#N canvas 0 23 280 330 delay-reader 0;
#X obj 96 107 inlet~;
#X obj 89 267 outlet~;
#X obj 112 163 inlet~;
#X obj 112 198 delread4~ delay2-\$0;
#X connect 2 0 3 0;
#X connect 3 0 1 0;
#X restore 399 292 pd delay-reader;
#X obj 335 107 i;
#X obj 335 152 change;
#X obj 335 200 pack 0 500;
#X obj 272 262 m.vca.exp;
#X obj 272 292 m.vca.exp;
#X connect 0 0 3 0;
#X connect 1 0 16 0;
#X connect 3 0 10 0;
#X connect 5 0 7 0;
#X connect 8 0 2 0;
#X connect 8 0 19 0;
#X connect 9 0 8 1;
#X connect 9 0 15 1;
#X connect 10 0 1 0;
#X connect 10 1 1 1;
#X connect 11 0 19 1;
#X connect 11 0 20 1;
#X connect 12 0 11 0;
#X connect 15 0 13 0;
#X connect 15 0 20 0;
#X connect 16 0 17 0;
#X connect 17 0 18 0;
#X connect 18 0 9 0;
#X connect 19 0 14 0;
#X connect 20 0 7 0;
