#N canvas 0 23 655 494 10;
#X obj 135 24 inlet~;
#X obj 147 204 f;
#X obj 177 204 + 1;
#X obj 147 240 % 2;
#X obj 147 262 sel 0;
#X obj 147 344 outlet~;
#X obj 415 91 loadbang;
#X msg 423 116 0;
#X obj 146 297 trig~;
#X obj 135 44 trig.detect;
#X obj 480 73 inlet~;
#X obj 480 93 trig.detect;
#X obj 265 223 pow;
#X obj 266 175 t b f;
#X msg 265 199 2;
#X obj 267 84 scale~ 0 1 0 10;
#X obj 266 110 round~;
#X obj 265 63 clip~ 0 1;
#X obj 266 153 snapshot~;
#X obj 287 132 bang~;
#X obj 265 18 inlet~;
#X connect 0 0 9 0;
#X connect 1 0 2 0;
#X connect 1 0 3 0;
#X connect 2 0 1 1;
#X connect 3 0 4 0;
#X connect 4 0 8 0;
#X connect 6 0 7 0;
#X connect 7 0 1 1;
#X connect 8 0 5 0;
#X connect 9 0 1 0;
#X connect 10 0 11 0;
#X connect 11 0 7 0;
#X connect 12 0 3 1;
#X connect 13 0 14 0;
#X connect 13 1 12 1;
#X connect 14 0 12 0;
#X connect 15 0 16 0;
#X connect 16 0 18 0;
#X connect 17 0 15 0;
#X connect 18 0 13 0;
#X connect 19 0 18 0;
#X connect 20 0 17 0;
