#N canvas 138 94 779 572 10;
#X obj 135 74 inlet~;
#X obj 138 140 f;
#X obj 168 140 + 1;
#X obj 138 198 sel 0;
#X obj 138 280 outlet~;
#X obj 268 87 loadbang;
#X msg 263 117 0;
#X obj 137 233 trig~;
#X obj 135 94 trig.detect;
#X obj 348 72 inlet~;
#X obj 348 92 trig.detect;
#X obj 138 176 % \$1;
#X connect 0 0 8 0;
#X connect 1 0 2 0;
#X connect 1 0 11 0;
#X connect 2 0 1 1;
#X connect 3 0 7 0;
#X connect 5 0 6 0;
#X connect 6 0 1 1;
#X connect 7 0 4 0;
#X connect 8 0 1 0;
#X connect 9 0 10 0;
#X connect 10 0 6 0;
#X connect 11 0 3 0;
#X coords 0 572 1 571 150 75 0;
