#N canvas 0 23 450 300 10;
#X obj 103 81 env~;
#X obj 102 105 / 100;
#X obj 101 134 sig~;
#X obj 104 45 inlet~;
#X obj 101 205 outlet~;
#X obj 108 168 lop~ 100;
#X connect 0 0 1 0;
#X connect 1 0 2 0;
#X connect 2 0 5 0;
#X connect 3 0 0 0;
#X connect 5 0 4 0;
