#N canvas 138 394 450 300 10;
#X obj 129 219 osc~;
#X obj 129 193 +~;
#X obj 144 135 *~;
#X text 27 72 freq;
#X text 247 113 I;
#X obj 157 107 pow~;
#X obj 139 73 sig~ 2;
#X obj 264 114 scale~ 0 1 0 25;
#X obj 145 162 fm.mod.osc~;
#X obj 88 25 inlet~;
#X obj 182 27 inlet~;
#X obj 267 37 inlet~;
#X obj 131 267 outlet~;
#X obj 208 65 scale~ 0 1 -1 4;
#X obj 58 72 p.cv2freq~;
#X connect 0 0 12 0;
#X connect 1 0 0 0;
#X connect 2 0 8 0;
#X connect 5 0 2 1;
#X connect 6 0 5 0;
#X connect 7 0 8 1;
#X connect 8 0 1 1;
#X connect 9 0 14 0;
#X connect 10 0 13 0;
#X connect 11 0 7 0;
#X connect 13 0 5 1;
#X connect 14 0 1 0;
#X connect 14 0 2 0;
