#N canvas 0 23 663 412 10;
#X obj 171 319 osc~;
#X obj 171 293 +~;
#X obj 160 147 *~;
#X text 39 85 freq;
#X obj 170 114 pow~;
#X obj 155 85 sig~ 2;
#X obj 267 120 scale~ 0 1 0 25;
#X obj 187 262 fm.mod.osc~;
#X obj 70 38 inlet~;
#X obj 182 47 inlet~;
#X obj 267 57 inlet~;
#X obj 171 348 outlet~;
#X obj 208 85 scale~ 0 1 -1 4;
#X obj 205 188 *~;
#X obj 385 119 pow~;
#X obj 368 92 sig~ 2;
#X obj 507 135 scale~ 0 1 0 25;
#X obj 205 212 fm.mod.osc~;
#X obj 422 57 inlet~;
#X obj 507 67 inlet~;
#X obj 422 92 scale~ 0 1 -1 4;
#X text 183 26 ratio1;
#X text 272 30 I1;
#X text 421 35 ratio2;
#X obj 187 237 +~;
#X obj 70 85 p.cv2freq~;
#X connect 0 0 11 0;
#X connect 1 0 0 0;
#X connect 2 0 24 0;
#X connect 4 0 2 1;
#X connect 5 0 4 0;
#X connect 6 0 7 1;
#X connect 7 0 1 1;
#X connect 8 0 25 0;
#X connect 9 0 12 0;
#X connect 10 0 6 0;
#X connect 12 0 4 1;
#X connect 13 0 17 0;
#X connect 14 0 13 1;
#X connect 15 0 14 0;
#X connect 16 0 17 1;
#X connect 17 0 24 1;
#X connect 18 0 20 0;
#X connect 19 0 16 0;
#X connect 20 0 14 1;
#X connect 24 0 7 0;
#X connect 25 0 1 0;
#X connect 25 0 2 0;
#X connect 25 0 13 0;
