#N canvas 0 23 450 380 10;
#X obj 40 34 inlet~;
#X obj 120 35 inlet~;
#X obj 203 35 inlet~;
#X obj 205 115 timer;
#X obj 205 70 trig.detect;
#X obj 205 92 t b b;
#X text 261 36 clock pulses;
#X text 122 14 length;
#X text 41 9 trigger;
#X obj 151 318 outlet~;
#X obj 40 93 trig.detect;
#X obj 151 145 *~;
#X obj 151 171 snapshot~;
#X obj 151 220 - 1;
#X obj 151 293 vline~;
#X msg 151 269 1 \, 0 1 \$1;
#X connect 0 0 10 0;
#X connect 1 0 11 0;
#X connect 2 0 4 0;
#X connect 3 0 11 1;
#X connect 4 0 5 0;
#X connect 5 0 3 0;
#X connect 5 1 3 1;
#X connect 10 0 12 0;
#X connect 11 0 12 0;
#X connect 12 0 13 0;
#X connect 13 0 15 0;
#X connect 14 0 9 0;
#X connect 15 0 14 0;
