#N canvas 0 23 683 537 10;
#X obj 91 159 phasor~;
#X obj 91 183 -~ 0.5;
#X obj 91 205 abs~;
#X msg 226 137 0.5;
#X obj 92 114 scale~ 0 1 0.01 20;
#X obj 93 82 pow~ 3;
#X obj 94 38 inlet~;
#X obj 92 335 outlet~;
#X obj 222 40 inlet~;
#X obj 225 85 trig.detect;
#X obj 91 227 *~ 2;
#X connect 0 0 1 0;
#X connect 1 0 2 0;
#X connect 2 0 10 0;
#X connect 3 0 0 1;
#X connect 4 0 0 0;
#X connect 5 0 4 0;
#X connect 6 0 5 0;
#X connect 8 0 9 0;
#X connect 9 0 3 0;
#X connect 10 0 7 0;
