#N canvas 84 116 683 537 10;
#X msg 226 137 0.5;
#X obj 92 114 scale~ 0 1 0.01 20;
#X obj 93 82 pow~ 3;
#X obj 94 38 inlet~;
#X obj 92 335 outlet~;
#X obj 222 40 inlet~;
#X obj 225 85 trig.detect;
#X obj 151 185 osc~;
#X obj 161 245 +~ 1;
#X obj 161 278 *~ 0.5;
#X connect 0 0 7 1;
#X connect 1 0 7 0;
#X connect 2 0 1 0;
#X connect 3 0 2 0;
#X connect 5 0 6 0;
#X connect 6 0 0 0;
#X connect 7 0 8 0;
#X connect 8 0 9 0;
#X connect 9 0 4 0;
