#N canvas 0 23 683 537 10;
#X obj 92 114 scale~ 0 1 0.01 20;
#X obj 93 82 pow~ 3;
#X obj 94 38 inlet~;
#X obj 92 335 outlet~;
#X obj 362 40 inlet~;
#X obj 365 85 trig.detect;
#X obj 229 114 clip~ 0.001 0.999;
#X obj 91 159 phasor~;
#X obj 91 185 >~;
#X msg 366 137 0.5;
#X obj 232 40 inlet~;
#X connect 0 0 7 0;
#X connect 1 0 0 0;
#X connect 2 0 1 0;
#X connect 4 0 5 0;
#X connect 5 0 9 0;
#X connect 6 0 8 1;
#X connect 7 0 8 0;
#X connect 8 0 3 0;
#X connect 9 0 7 1;
#X connect 10 0 6 0;
