#N canvas 29 36 965 521 10;
#X obj 153 22 inlet~;
#X obj 203 22 inlet~;
#X obj 263 22 inlet~;
#X obj 313 22 inlet~;
#X obj 373 22 inlet~;
#X obj 423 22 inlet~;
#X obj 483 22 inlet~;
#X obj 533 22 inlet~;
#X obj 623 22 inlet~;
#X obj 673 22 inlet~;
#X obj 723 22 inlet~;
#X obj 773 22 inlet~;
#X obj 287 420 outlet~;
#X obj 518 425 outlet~;
#X obj 215 230 +~;
#X obj 375 230 +~;
#X obj 288 281 +~;
#X obj 455 230 +~;
#X obj 615 230 +~;
#X obj 528 281 +~;
#X obj 11 15 cnv 15 86 20 empty empty empty 20 12 0 14 -228856 -66577
0;
#X text 27 20 ins;
#X text 105 19 levs;
#X obj 154 119 m.vca.exp;
#X obj 234 169 m.vca.exp;
#X obj 264 119 m.vca.exp;
#X obj 344 169 m.vca.exp;
#X obj 374 119 m.vca.exp;
#X obj 454 169 m.vca.exp;
#X obj 484 119 m.vca.exp;
#X obj 564 169 m.vca.exp;
#X connect 0 0 23 0;
#X connect 1 0 24 0;
#X connect 2 0 25 0;
#X connect 3 0 26 0;
#X connect 4 0 27 0;
#X connect 5 0 28 0;
#X connect 6 0 29 0;
#X connect 7 0 30 0;
#X connect 8 0 23 1;
#X connect 8 0 24 1;
#X connect 9 0 25 1;
#X connect 9 0 26 1;
#X connect 10 0 27 1;
#X connect 10 0 28 1;
#X connect 11 0 29 1;
#X connect 11 0 30 1;
#X connect 14 0 16 0;
#X connect 15 0 16 1;
#X connect 16 0 12 0;
#X connect 17 0 19 0;
#X connect 18 0 19 1;
#X connect 19 0 13 0;
#X connect 23 0 14 0;
#X connect 24 0 17 0;
#X connect 25 0 14 1;
#X connect 26 0 17 1;
#X connect 27 0 15 0;
#X connect 28 0 18 0;
#X connect 29 0 15 1;
#X connect 30 0 18 1;
#X coords 0 -1 1 1 130 30 2 10 10;
