#N canvas 0 23 315 368 10;
#X obj 71 109 phasor~;
#X obj 71 133 -~ 0.5;
#X obj 71 155 abs~;
#X obj 71 214 outlet~;
#X obj 70 55 inlet~;
#X obj 70 84 p.cv2freq~;
#X obj 71 181 scale~ 0 0.5 -1 1;
#X connect 0 0 1 0;
#X connect 1 0 2 0;
#X connect 2 0 6 0;
#X connect 4 0 5 0;
#X connect 5 0 0 0;
#X connect 6 0 3 0;
