#N canvas 194 151 450 300 10;
#X obj 159 165 phasor~;
#X obj 158 95 inlet~;
#X obj 158 245 outlet~;
#X obj 158 202 scale~ 0 1 -1 1;
#X obj 158 124 p.cv2freq~;
#X connect 0 0 3 0;
#X connect 1 0 4 0;
#X connect 3 0 2 0;
#X connect 4 0 0 0;
