#N canvas 468 198 450 300 10;
#X obj 155 52 inlet~;
#X obj 217 196 outlet~;
#X obj 123 193 outlet~;
#X obj 233 55 inlet~;
#X obj 141 97 sig~ 1;
#X obj 141 124 -~;
#X obj 141 148 sqrt~;
#X obj 235 152 sqrt~;
#X obj 217 175 *~;
#X obj 123 171 *~;
#X connect 0 0 8 0;
#X connect 0 0 9 0;
#X connect 3 0 5 1;
#X connect 3 0 7 0;
#X connect 4 0 5 0;
#X connect 5 0 6 0;
#X connect 6 0 9 1;
#X connect 7 0 8 1;
#X connect 8 0 1 0;
#X connect 9 0 2 0;
