#N canvas 106 255 632 379 10;
#N canvas 0 22 450 278 (subpatch) 0;
#X array \$0-parms4 4 float 2;
#X coords 0 1 4 0 40 100 1 0 0;
#X restore 11 11 graph;
#X obj 73 274 sig~;
#X obj 113 274 sig~;
#X obj 153 274 sig~;
#X obj 193 274 sig~;
#X obj 74 192 bang~;
#X obj 219 137 list prepend 0;
#X obj 53 97 bng 15 250 50 0 empty empty empty 17 7 0 10 -262144 -1
-1;
#X obj 15 310 outlet~;
#X obj 75 310 outlet~;
#X obj 135 310 outlet~;
#X obj 195 310 outlet~;
#X obj 496 310 outlet;
#X obj 221 44 inlet;
#X obj 219 162 send \$0-parms4;
#X obj 476 275 tabdump \$0-parms4;
#X obj 74 213 tabdump \$0-parms4;
#X obj 74 235 unpack f f f f;
#X connect 1 0 8 0;
#X connect 2 0 9 0;
#X connect 3 0 10 0;
#X connect 4 0 11 0;
#X connect 5 0 16 0;
#X connect 6 0 14 0;
#X connect 7 0 15 0;
#X connect 13 0 6 0;
#X connect 15 0 12 0;
#X connect 16 0 17 0;
#X connect 17 0 1 0;
#X connect 17 1 2 0;
#X connect 17 2 3 0;
#X connect 17 3 4 0;
#X coords 0 -1 1 1 60 105 2 10 10;
