#N canvas 15 374 715 395 10;
#X obj 293 124 loadbang;
#X obj 293 146 f \$0;
#X obj 43 96 round~;
#X obj 51 263 +~;
#X obj 293 247 table \$0-scale 84;
#X obj 159 99 scale~ 0 1 0 7;
#X obj 159 123 floor~;
#X obj 82 240 tabread~ \$0-scale;
#X obj 159 171 *~ 12;
#X obj 145 201 +~;
#X obj 159 148 clip~ 0 6;
#X obj 65 130 mod~;
#X obj 99 102 sig~ 12;
#X obj 43 157 -~;
#X obj 43 43 inlet~;
#X obj 161 44 inlet~;
#X obj 51 342 outlet~;
#X text 220 43 0...6 selects scale mode;
#X text 230 277 ionian dorian phrygian lydian mixolydian aeolian locrian
;
#X obj 43 72 scale~ 0 1 0 120;
#X obj 51 287 scale~ 0 120 0 1;
#X msg 293 169 \; \$1-scale 0 0 2 2 4 4 5 7 7 9 9 11 11 0 2 2 3 3 5
7 7 9 9 10 10 0 1 1 3 3 5 7 7 8 8 10 10 0 2 2 4 4 6 6 7 9 9 11 11 0
2 2 4 4 5 7 7 9 9 10 10 0 2 2 3 3 5 7 7 8 8 10 10 0 1 1 3 3 5 6 6 8
8 10 10;
#X connect 0 0 1 0;
#X connect 1 0 21 0;
#X connect 2 0 11 0;
#X connect 2 0 13 0;
#X connect 3 0 20 0;
#X connect 5 0 6 0;
#X connect 6 0 10 0;
#X connect 7 0 3 1;
#X connect 8 0 9 1;
#X connect 9 0 7 0;
#X connect 10 0 8 0;
#X connect 11 0 9 0;
#X connect 11 0 13 1;
#X connect 12 0 11 1;
#X connect 13 0 3 0;
#X connect 14 0 19 0;
#X connect 15 0 5 0;
#X connect 19 0 2 0;
#X connect 20 0 16 0;
