#N canvas 146 83 780 538 10;
#X obj 66 54 inlet~;
#X obj 319 57 inlet;
#X obj 226 55 inlet~;
#X obj 64 94 trig.detect;
#N canvas 0 22 450 278 (subpatch) 0;
#X array \$0-sample 31379 float 2;
#X coords 0 1 31379 -1 200 140 1;
#X restore 437 326 graph;
#X obj 315 166 soundfiler;
#X obj 180 203 * 100;
#X obj 159 225 f;
#X obj 158 274 vline~;
#X obj 168 330 tabread4~ \$0-sample;
#X obj 168 355 outlet~;
#X obj 376 67 f \$0;
#X obj 376 45 loadbang;
#X obj 376 89 makefilename %d-sample;
#X obj 323 112 pack s s;
#X msg 314 141 read -resize \$1 \$2;
#X obj 382 191 unpack f;
#X msg 158 250 0 \, \$1 100000;
#X obj 199 99 scale~ 0 1 -2 2;
#X obj 202 159 pow~;
#X obj 202 136 sig~ 2;
#X obj 169 298 *~;
#X connect 0 0 3 0;
#X connect 1 0 14 0;
#X connect 2 0 18 0;
#X connect 3 0 7 0;
#X connect 5 1 16 0;
#X connect 6 0 7 1;
#X connect 7 0 17 0;
#X connect 8 0 21 0;
#X connect 9 0 10 0;
#X connect 11 0 13 0;
#X connect 12 0 11 0;
#X connect 13 0 14 1;
#X connect 14 0 15 0;
#X connect 15 0 5 0;
#X connect 16 0 6 0;
#X connect 17 0 8 0;
#X connect 18 0 19 1;
#X connect 19 0 21 1;
#X connect 20 0 19 0;
#X connect 21 0 9 0;
