#N canvas 359 280 675 498 10;
#X obj 95 47 inlet~;
#X obj 147 46 inlet~;
#X obj 203 48 inlet~;
#X obj 96 193 outlet~;
#X text 97 20 signal cutoff(v/oct) q (0..1);
#X obj 116 147 svf~, f 7;
#X obj 156 193 outlet~;
#X obj 216 193 outlet~;
#X obj 276 193 outlet~;
#X obj 129 97 p.cv2freq~;
#X connect 0 0 5 0;
#X connect 1 0 9 0;
#X connect 2 0 5 2;
#X connect 5 0 3 0;
#X connect 5 1 6 0;
#X connect 5 2 7 0;
#X connect 5 3 8 0;
#X connect 9 0 5 1;
