#N canvas 0 22 349 401 10;
#X obj 81 245 *~;
#X obj 115 158 pow~;
#X msg 115 130 10;
#X obj 115 105 loadbang;
#X obj 176 91 -~ 1;
#X obj 178 120 *~ 3;
#X obj 176 66 clip~ 0 1;
#X obj 115 181 -~ 0.001;
#X obj 114 213 *~ 1.5;
#X obj 170 17 inlet~;
#X obj 59 21 inlet~;
#X obj 78 298 outlet~;
#X text 73 45 signal;
#X text 188 39 gain cv 0..1;
#X connect 0 0 11 0;
#X connect 1 0 7 0;
#X connect 2 0 1 0;
#X connect 3 0 2 0;
#X connect 4 0 5 0;
#X connect 5 0 1 1;
#X connect 6 0 4 0;
#X connect 7 0 8 0;
#X connect 8 0 0 1;
#X connect 9 0 6 0;
#X connect 10 0 0 0;
