#N canvas 0 22 887 755 10;
#X obj 176 24 inlet~;
#N canvas 0 22 450 300 reverberator-1 0;
#X obj 134 108 inlet~;
#X obj 204 109 inlet~;
#X obj 134 153 +~;
#X obj 189 152 -~;
#X obj 134 204 outlet~;
#X obj 186 223 outlet~;
#X obj 189 174 delwrite~ \$0-echo1 5.43216;
#X obj 186 201 delread~ \$0-echo1 5.43216;
#X connect 0 0 2 0;
#X connect 0 0 3 0;
#X connect 1 0 3 1;
#X connect 1 0 2 1;
#X connect 2 0 4 0;
#X connect 3 0 6 0;
#X connect 7 0 5 0;
#X restore 176 57 pd reverberator-1;
#N canvas 0 22 450 300 reverberator-2 0;
#X obj 134 108 inlet~;
#X obj 204 109 inlet~;
#X obj 134 153 +~;
#X obj 189 152 -~;
#X obj 134 204 outlet~;
#X obj 186 223 outlet~;
#X obj 186 201 delread~ \$0-echo2 8.45346;
#X obj 189 174 delwrite~ \$0-echo2 8.45346;
#X connect 0 0 2 0;
#X connect 0 0 3 0;
#X connect 1 0 3 1;
#X connect 1 0 2 1;
#X connect 2 0 4 0;
#X connect 3 0 7 0;
#X connect 6 0 5 0;
#X restore 176 93 pd reverberator-2;
#N canvas 0 22 450 300 reverberator-3 0;
#X obj 134 108 inlet~;
#X obj 204 109 inlet~;
#X obj 134 153 +~;
#X obj 189 152 -~;
#X obj 134 204 outlet~;
#X obj 186 223 outlet~;
#X obj 186 201 delread~ \$0-echo3 13.4367;
#X obj 189 174 delwrite~ \$0-echo3 13.4367;
#X connect 0 0 2 0;
#X connect 0 0 3 0;
#X connect 1 0 3 1;
#X connect 1 0 2 1;
#X connect 2 0 4 0;
#X connect 3 0 7 0;
#X connect 6 0 5 0;
#X restore 176 124 pd reverberator-3;
#N canvas 0 22 450 300 reverberator-4 0;
#X obj 134 108 inlet~;
#X obj 204 109 inlet~;
#X obj 134 153 +~;
#X obj 189 152 -~;
#X obj 134 204 outlet~;
#X obj 186 223 outlet~;
#X obj 189 174 delwrite~ \$0-echo4 21.5463;
#X obj 186 200 delread~ \$0-echo4 21.5463;
#X connect 0 0 2 0;
#X connect 0 0 3 0;
#X connect 1 0 3 1;
#X connect 1 0 2 1;
#X connect 2 0 4 0;
#X connect 3 0 6 0;
#X connect 7 0 5 0;
#X restore 176 156 pd reverberator-4;
#N canvas 0 22 450 300 reverberator-5 0;
#X obj 134 108 inlet~;
#X obj 204 109 inlet~;
#X obj 134 153 +~;
#X obj 189 152 -~;
#X obj 134 204 outlet~;
#X obj 186 223 outlet~;
#X obj 189 174 delwrite~ \$0-echo5 34.3876;
#X obj 186 201 delread~ \$0-echo5 34.3876;
#X connect 0 0 2 0;
#X connect 0 0 3 0;
#X connect 1 0 3 1;
#X connect 1 0 2 1;
#X connect 2 0 4 0;
#X connect 3 0 6 0;
#X connect 7 0 5 0;
#X restore 176 185 pd reverberator-5;
#N canvas 0 22 450 300 reverberator-6 0;
#X obj 134 108 inlet~;
#X obj 204 109 inlet~;
#X obj 134 153 +~;
#X obj 189 152 -~;
#X obj 134 204 outlet~;
#X obj 186 223 outlet~;
#X obj 189 174 delwrite~ \$0-echo6 55.5437;
#X obj 186 200 delread~ \$0-echo6 55.5437;
#X connect 0 0 2 0;
#X connect 0 0 3 0;
#X connect 1 0 3 1;
#X connect 1 0 2 1;
#X connect 2 0 4 0;
#X connect 3 0 6 0;
#X connect 7 0 5 0;
#X restore 176 217 pd reverberator-6;
#X obj 286 340 +~;
#X obj 385 340 +~;
#X obj 286 421 +~;
#X obj 330 421 -~;
#X obj 385 421 +~;
#X obj 402 459 -~;
#X obj 286 459 +~;
#X obj 330 459 +~;
#X obj 417 421 -~;
#X obj 370 459 -~;
#X obj 330 507 *~;
#X obj 286 507 *~;
#X obj 402 507 *~;
#X obj 370 507 *~;
#X obj 286 645 delwrite~ \$0-loop1 60;
#X obj 330 622 delwrite~ \$0-loop2 71.9345;
#X obj 412 147 delread~ \$0-loop1 60;
#X obj 419 179 delread~ \$0-loop2 71.9345;
#X obj 370 595 delwrite~ \$0-loop3 86.754;
#X obj 402 565 delwrite~ \$0-loop4 95.945;
#X obj 473 294 delread~ \$0-loop3 86.754;
#X obj 436 261 delread~ \$0-loop4 95.945;
#X obj 142 404 lop~;
#X obj 142 434 lop~;
#X obj 209 404 lop~;
#X obj 209 434 lop~;
#X obj 772 274 * 4950;
#X obj 772 296 + 50;
#X obj 772 318 pack 0 50;
#X obj 772 340 line;
#X obj 772 362 t f f f f;
#X obj 91 495 *~;
#X text 55 495 DRY;
#X obj 142 473 *~;
#X obj 209 472 *~;
#X obj 489 373 inlet~;
#X obj 489 395 *~ 0.452;
#X text 487 354 REVERB CV IN;
#X obj 769 167 inlet~;
#X obj 772 252 +;
#X obj 769 198 snapshot~;
#X obj 769 222 t b f;
#X obj 817 167 bang~;
#X obj 489 432 min~ 0.452;
#X obj 489 454 max~ -0.452;
#X obj 142 610 *~ 0.5;
#X obj 142 713 outlet~;
#X obj 208 713 outlet~;
#X obj 210 600 *~ 0.5;
#X text 329 180 DRY/WET;
#X obj 328 198 inlet~;
#X obj 82 431 *~ -1;
#X obj 82 454 +~ 1;
#X obj 142 357 *~ 0.05;
#X obj 209 357 *~ 0.05;
#X connect 0 0 1 0;
#X connect 0 0 38 0;
#X connect 1 0 2 0;
#X connect 1 1 2 1;
#X connect 2 0 3 0;
#X connect 2 1 3 1;
#X connect 3 0 4 0;
#X connect 3 1 4 1;
#X connect 4 0 5 0;
#X connect 4 1 5 1;
#X connect 5 0 6 0;
#X connect 5 1 6 1;
#X connect 6 0 7 0;
#X connect 6 1 8 0;
#X connect 7 0 9 0;
#X connect 7 0 10 0;
#X connect 7 0 60 0;
#X connect 8 0 9 1;
#X connect 8 0 10 1;
#X connect 8 0 61 0;
#X connect 9 0 13 0;
#X connect 9 0 16 0;
#X connect 10 0 14 0;
#X connect 10 0 12 0;
#X connect 11 0 13 1;
#X connect 11 0 16 1;
#X connect 12 0 19 0;
#X connect 13 0 18 0;
#X connect 14 0 17 0;
#X connect 15 0 12 1;
#X connect 15 0 14 1;
#X connect 16 0 20 0;
#X connect 17 0 22 0;
#X connect 18 0 21 0;
#X connect 19 0 26 0;
#X connect 20 0 25 0;
#X connect 23 0 7 1;
#X connect 24 0 8 1;
#X connect 27 0 11 0;
#X connect 27 0 15 0;
#X connect 28 0 11 1;
#X connect 28 0 15 1;
#X connect 29 0 30 0;
#X connect 30 0 40 0;
#X connect 31 0 32 0;
#X connect 32 0 41 0;
#X connect 33 0 34 0;
#X connect 34 0 35 0;
#X connect 35 0 36 0;
#X connect 36 0 37 0;
#X connect 37 0 29 1;
#X connect 37 1 30 1;
#X connect 37 2 31 1;
#X connect 37 3 32 1;
#X connect 38 0 52 0;
#X connect 38 0 55 0;
#X connect 40 0 52 0;
#X connect 41 0 55 0;
#X connect 42 0 43 0;
#X connect 43 0 50 0;
#X connect 45 0 47 0;
#X connect 46 0 33 0;
#X connect 47 0 48 0;
#X connect 48 0 46 0;
#X connect 48 1 46 1;
#X connect 49 0 47 0;
#X connect 50 0 51 0;
#X connect 51 0 19 1;
#X connect 51 0 20 1;
#X connect 51 0 17 1;
#X connect 51 0 18 1;
#X connect 52 0 53 0;
#X connect 55 0 54 0;
#X connect 57 0 40 1;
#X connect 57 0 41 1;
#X connect 57 0 58 0;
#X connect 58 0 59 0;
#X connect 59 0 38 1;
#X connect 60 0 29 0;
#X connect 61 0 31 0;
#X coords 0 752 1 751 185 115 0;
