#N canvas 4 80 427 303 10;
#X obj 68 65 inlet~;
#X obj 68 117 /~;
#X obj 68 139 wrap~;
#X obj 68 161 -~;
#X obj 68 183 *~;
#X obj 68 205 outlet~;
#X obj 118 139 <~ 0;
#X obj 128 65 inlet~;
#X text 206 194 .mmb;
#X connect 0 0 1 0;
#X connect 0 0 6 0;
#X connect 1 0 2 0;
#X connect 2 0 3 0;
#X connect 3 0 4 0;
#X connect 4 0 5 0;
#X connect 6 0 3 1;
#X connect 7 0 1 1;
#X connect 7 0 4 1;
