#N canvas 220 254 450 300 10;
#X obj 91 107 - \$1;
#X obj 193 112 - \$3;
#X obj 159 47 loadbang;
#X obj 91 86 f \$2;
#X obj 192 86 f \$4;
#X obj 73 28 inlet;
#X obj 74 59 - \$1;
#X obj 74 127 /;
#X obj 136 170 *;
#X obj 137 199 + \$3;
#X obj 141 237 outlet;
#X connect 0 0 7 1;
#X connect 1 0 8 1;
#X connect 2 0 3 0;
#X connect 2 0 4 0;
#X connect 3 0 0 0;
#X connect 4 0 1 0;
#X connect 5 0 6 0;
#X connect 6 0 7 0;
#X connect 7 0 8 0;
#X connect 8 0 9 0;
#X connect 9 0 10 0;
